<svg xmlns="http://www.w3.org/2000/svg" viewBox="0 0 1000 500" width="1000" height="500" fill="currentColor">
<path d="M991.2 453.8c-2.2-2.3-5.3-3.6-8.5-3.8-1.4 0-2.8.2-4.1.6-1.1.3-2.1.8-3.1 1.4-1.2.8-2.3 1.7-3.4 2.8-1.5 1.5-2.8 3.3-4.1 5.2-1.2 1.9-2.3 3.9-3.3 6-1.1 2.2-2 4.4-2.7 6.8-.7 2.4-1.2 4.8-1.4 7.3-.3 2.5-.3 5-.1 7.5.2 2.5.6 4.9 1.4 7.3.7 2.2 1.7 4.3 2.9 6.3 1.2 2 2.6 3.8 4.2 5.5 1.6 1.7 3.4 3.2 5.3 4.5 1.8 1.3 3.8 2.4 5.9 3.2 2.1.8 4.2 1.4 6.4 1.7 2.2.3 4.5.4 6.7.1 2.2-.2 4.4-.8 6.5-1.6 2.1-.8 4.1-2 6-3.4 1.8-1.4 3.5-3.1 5-5.1 1.2-1.4 2.2-3 3.1-4.7s1.6-3.5 2.2-5.3c.6-1.8 1-3.7 1.3-5.6.3-1.9.4-3.8.4-5.7 0-1.9-.1-3.8-.4-5.7-.3-1.9-.7-3.8-1.3-5.6-.5-1.8-1.2-3.6-2-5.3s-1.8-3.4-2.8-5c-1-1.6-2.2-3.1-3.6-4.4zM985.3 430l-1.4-.1c-1.8 0-3.5.3-5.2.8-1.7.5-3.3 1.2-4.9 2.1-1.6.9-3 2-4.4 3.3s-2.6 2.7-3.8 4.3c-1.2 1.6-2.2 3.3-3.1 5.1-.9 1.8-1.7 3.7-2.3 5.7-.6 2-1.1 4-1.4 6.1-.3 2.1-.4 4.2-.4 6.3 0 2.1.1 4.2.4 6.3.3 2.1.8 4.1 1.4 6.1s1.7 3.9 2.7 5.7c1 1.8 2.2 3.5 3.5 5.1 1.3 1.6 2.8 3.1 4.5 4.4 1.7 1.3 3.5 2.5 5.5 3.5s4 1.8 6.2 2.4c2.2.6 4.4 1 6.7 1.1 2.3.1 4.6 0 6.8-.5 2.2-.5 4.4-1.2 6.4-2.2 2-1 3.9-2.2 5.7-3.7 1.8-1.5 3.4-3.2 4.9-5.1 1.5-1.9 2.8-4 3.9-6.3.9-1.9 1.7-3.9 2.3-5.9.6-2 1-4.1 1.3-6.2.3-2.1.4-4.2.4-6.3 0-2.1-.1-4.2-.4-6.3-.3-2.1-.7-4.2-1.2-6.2s-1.1-4-1.8-5.9c-.7-1.9-1.5-3.8-2.4-5.6s-2-3.5-3.2-5.1c-1.2-1.6-2.5-3.1-4-4.5s-3.1-2.6-4.9-3.7c-1.8-1.1-3.7-2-5.7-2.7s-4-1.3-6.1-1.6c-2.1-.3-4.2-.5-6.3-.4z"/>
<path d="M518 206.5c.2 1.1.4 2.2.5 3.3.1 1.1.2 2.3.2 3.4 0 1.1 0 2.2-.1 3.3s-.3 2.1-.5 3.2c-1.2 5.2-3.6 9.8-6.9 13.6-3.3 3.8-7.5 6.7-12.2 8.5-4.7 1.8-9.9 2.4-15.1 1.8-5.2-.6-10.2-2.5-14.6-5.4-4.4-3-8.1-6.9-11-11.5-2.9-4.6-4.9-9.8-5.7-15.4-.8-5.5-.4-11.2 1.2-16.5 1.6-5.3 4.4-10.2 8.2-14.3 3.8-4.1 8.5-7.3 13.8-9.4 5.2-2.1 11-2.9 16.7-2.4 5.7.5 11.2 2.3 16 5.2 4.8 2.9 8.7 6.9 11.7 11.7.5 1 .9 2 1.3 3 .4.9.8 1.9 1.1 2.8zM245.2 216.4c.5 1.6.9 3.2 1.2 4.8.3 1.6.5 3.2.6 4.9.1 1.6.1 3.2 0 4.8-.1 1.6-.3 3.2-.6 4.7-1.7 7.6-5.2 14.3-10.1 19.8-4.9 5.5-11.1 9.8-18 12.4-6.8 2.6-14.2 3.5-21.6 2.6-7.4-.9-14.5-3.6-20.7-7.9-6.2-4.3-11.5-10-15.6-16.7s-6.9-14.3-8.3-22.3c-1.4-8 0-16.3 3-23.9 3-7.6 7.6-14.4 13.5-19.9 5.9-5.5 13.1-9.5 21-11.8 7.9-2.3 16.2-2.8 24.3-1.4 8.1 1.4 15.7 4.8 22.2 9.9 6.5 5.1 11.8 11.6 15.5 18.9.6 1.2 1.2 2.5 1.7 3.7.5 1.3 1 2.6 1.4 3.9zM22.2 233.1c.3 1.5.5 2.9.6 4.4s.2 3 .2 4.5c0 1.5-.1 3-.2 4.5s-.3 2.9-.6 4.4c-1.5 6.9-4.7 13-9.1 18-4.4 5-9.9 8.9-15.9 11.3-6 2.4-12.5 3.2-19 2.3-6.4-.9-12.7-3.3-18.3-7.1-5.6-3.8-10.4-8.9-14-14.8-3.7-6-6.2-12.7-7.5-19.8-1.3-7.2.1-14.6 2.7-21.4 2.6-6.8 6.8-12.9 12.1-17.9 5.3-5 11.8-8.6 18.8-10.6 7-2 14.5-2.2 21.8-.7 7.3 1.5 14.2 4.8 20.1 9.5 5.9 4.7 10.7 10.7 14.1 17.5.6 1.1 1.1 2.3 1.6 3.4.5 1.1.9 2.3 1.2 3.4z"/>
</svg>
